<svg xmlns="http://www.w3.org/2000/svg" viewBox="0 0 61.6 14"><path fill-rule="evenodd" d="M4.9 0L48.9 0L44 14L0 14ZM11.68 3.5L12.84 3.5L10.39 10.5L9.23 10.5ZM15.18 3.5L16.34 3.5L13.89 10.5L12.73 10.5ZM11.82 6.42L14.15 6.42L13.75 7.58L11.41 7.58ZM17.45 7L19.78 7L19.38 8.17L17.04 8.17ZM17.1 4.67L18.27 4.67L16.23 10.5L15.06 10.5ZM20.6 4.67L21.77 4.67L19.73 10.5L18.56 10.5ZM17.1 4.67L18.68 3.5L21.01 3.5L21.77 4.67ZM23.34 3.5L24.51 3.5L23.88 8.63L26.84 3.5L28.01 3.5L23.81 10.5L22.64 10.5ZM29.18 3.5L33.84 3.5L33.43 4.67L28.77 4.67ZM27.13 9.33L31.8 9.33L31.39 10.5L26.73 10.5ZM28.77 4.67L29.93 4.67L28.3 9.33L27.13 9.33ZM32.27 4.67L33.43 4.67L31.8 9.33L30.63 9.33ZM35.01 3.5L39.67 3.5L39.27 4.67L34.6 4.67ZM34.6 4.67L35.77 4.67L34.13 9.33L32.97 9.33ZM32.97 9.33L37.63 9.33L37.23 10.5L32.56 10.5ZM51.9 0L54.5 0L49.6 14L47 14ZM55.45 3L58.05 3L54.2 14L51.6 14ZM59 6L61.6 6L58.8 14L56.2 14Z"/></svg>
